HIERARCHY
ROOT SpineBase
{
  OFFSET 0.000000 0.000000 0.000000
  CHANNELS 6 Xposition Yposition Zposition Zrotation Xrotation Yrotation
  JOINT SpineMid
  {
    OFFSET 0.000000 26.920992 0.000000
    CHANNELS 3 Zrotation Xrotation Yrotation
    JOINT SpineShoulder
    {
      OFFSET -0.094328 20.064516 -0.612869
      CHANNELS 3 Zrotation Xrotation Yrotation
      JOINT Neck
      {
        OFFSET -0.057226 6.666599 -0.481474
        CHANNELS 3 Zrotation Xrotation Yrotation
        JOINT Head
        {
          OFFSET -3.074629 12.424563 -0.641494
          CHANNELS 3 Zrotation Xrotation Yrotation
          End Site
          {
            OFFSET 0 0 0
          }
        }
      }
      JOINT ShoulderLeft
      {
        OFFSET -13.772740 -3.998780 4.612713
        CHANNELS 3 Zrotation Xrotation Yrotation
        JOINT ElbowLeft
        {
          OFFSET -0.498097 -24.880165 1.473888
          CHANNELS 3 Zrotation Xrotation Yrotation
          JOINT WristLeft
          {
            OFFSET -1.354866 -19.701961 -6.398762
            CHANNELS 3 Zrotation Xrotation Yrotation
            JOINT HandLeft
            {
              OFFSET 0.865075 -2.877675 -0.363461
              CHANNELS 3 Zrotation Xrotation Yrotation
              JOINT HandTipLeft
              {
                OFFSET -0.270803 -6.481414 -1.830419
                CHANNELS 3 Zrotation Xrotation Yrotation
                End Site
                {
                  OFFSET 0 0 0
                }
              }
              JOINT ThumbLeft
              {
                OFFSET 3.042169 -0.136889 -3.095225
                CHANNELS 3 Zrotation Xrotation Yrotation
                End Site
                {
                  OFFSET 0 0 0
                }
              }
            }
          }
        }
      }
      JOINT ShoulderRight
      {
        OFFSET 10.764730 -2.832860 -7.028565
        CHANNELS 3 Zrotation Xrotation Yrotation
        JOINT ElbowRight
        {
          OFFSET 4.546471 -21.229367 -2.941950
          CHANNELS 3 Zrotation Xrotation Yrotation
          JOINT WristRight
          {
            OFFSET -0.853990 -20.563189 -6.993922
            CHANNELS 3 Zrotation Xrotation Yrotation
            JOINT HandRight
            {
              OFFSET -1.218909 -6.328222 -0.465341
              CHANNELS 3 Zrotation Xrotation Yrotation
              JOINT HandTipRight
              {
                OFFSET -0.785217 -5.882911 -1.521078
                CHANNELS 3 Zrotation Xrotation Yrotation
                End Site
                {
                  OFFSET 0 0 0
                }
              }
              JOINT ThumbRight
              {
                OFFSET -2.678942 -0.042988 -0.578745
                CHANNELS 3 Zrotation Xrotation Yrotation
                End Site
                {
                  OFFSET 0 0 0
                }
              }
            }
          }
        }
      }
    }
  }
  JOINT HipLeft
  {
    OFFSET -5.731619 0.135963 -0.830310
    CHANNELS 3 Zrotation Xrotation Yrotation
    JOINT KneeLeft
    {
      OFFSET 3.116424 -28.961464 1.903397
      CHANNELS 3 Zrotation Xrotation Yrotation
      JOINT AnkleLeft
      {
        OFFSET 5.220512 -34.279090 5.966305
        CHANNELS 3 Zrotation Xrotation Yrotation
        JOINT FootLeft
        {
          OFFSET -3.334133 -2.434501 -9.945832
          CHANNELS 3 Zrotation Xrotation Yrotation
          End Site
          {
            OFFSET 0 0 0
          }
        }
      }
    }
  }
  JOINT HipRight
  {
    OFFSET 5.078508 1.405761 -5.238671
    CHANNELS 3 Zrotation Xrotation Yrotation
    JOINT KneeRight
    {
      OFFSET 7.527372 -30.009912 -2.656375
      CHANNELS 3 Zrotation Xrotation Yrotation
      JOINT AnkleRight
      {
        OFFSET 6.065205 -32.102472 3.617295
        CHANNELS 3 Zrotation Xrotation Yrotation
        JOINT FootRight
        {
          OFFSET -3.302913 -5.252183 -4.792681
          CHANNELS 3 Zrotation Xrotation Yrotation
          End Site
          {
            OFFSET 0 0 0
          }
        }
      }
    }
  }
}
MOTION
Frames: 14
Frame Time: 0.033333
38.748811 73.750420 368.232786 -0.000000 0.000000 22.185594 -0.000000 0.000000 -22.185594 -0.000000 0.000000 0.000000 -0.000000 0.000000 0.000000 0.000000 0.000000 0.000000 -0.000000 0.000000 0.000000 -0.000000 0.000000 0.000000 -0.000000 0.000000 0.000000 -0.000000 0.000000 0.000000 0.000000 0.000000 0.000000 0.000000 0.000000 0.000000 -0.000000 0.000000 0.000000 -0.000000 0.000000 0.000000 -0.000000 0.000000 0.000000 -0.000000 0.000000 0.000000 0.000000 0.000000 0.000000 0.000000 0.000000 0.000000 -0.000000 0.000000 -22.185594 -0.000000 0.000000 0.000000 -0.000000 0.000000 0.000000 0.000000 0.000000 0.000000 -0.000000 0.000000 -22.185594 -0.000000 0.000000 0.000000 -0.000000 0.000000 0.000000 0.000000 0.000000 0.000000
38.755190 73.749494 368.263840 -0.017510 0.024236 22.205214 0.007052 -0.029056 -22.205209 -0.000000 0.000000 0.000000 -0.000000 0.000000 0.000000 0.000000 0.000000 0.000000 -0.000000 0.000000 0.000000 -0.000000 0.000000 0.000000 -2.019193 4.069571 1.551860 1.336026 -2.348547 -1.342528 0.000000 0.000000 0.000000 0.000000 0.000000 0.000000 -0.000000 0.000000 0.000000 0.736252 -0.504083 -0.226642 0.650289 1.145226 -0.012584 0.255424 -3.808868 0.283995 0.000000 0.000000 0.000000 0.000000 0.000000 0.000000 0.007052 -0.029056 -22.205209 -0.000000 0.000000 0.000000 -0.000000 0.000000 0.000000 0.000000 0.000000 0.000000 0.007052 -0.029056 -22.205209 -0.000000 0.000000 0.000000 0.471745 -4.227624 2.330981 0.000000 0.000000 0.000000
38.758485 73.747614 368.291110 -0.032262 0.046222 22.199459 0.012407 -0.054985 -22.199440 -0.000000 0.000000 0.000000 -0.000000 0.000000 0.000000 0.000000 0.000000 0.000000 -0.000000 0.000000 0.000000 0.447688 -0.705212 -0.094362 -4.096000 7.617310 2.911285 2.477004 -4.002519 -2.278032 0.000000 0.000000 0.000000 0.000000 0.000000 0.000000 -0.000000 0.000000 0.000000 1.161242 -0.807679 -0.354242 0.921894 2.003405 -0.064962 0.832770 -6.973220 0.603384 0.000000 0.000000 0.000000 0.000000 0.000000 0.000000 0.012407 -0.054985 -22.199440 -0.000000 0.000000 0.000000 -0.000000 0.000000 0.000000 0.000000 0.000000 0.000000 0.012407 -0.054985 -22.199440 -0.000000 0.000000 0.000000 0.714485 -6.708690 3.832218 0.000000 0.000000 0.000000
38.758695 73.744781 368.314596 -0.044267 0.065967 22.168285 0.016103 -0.077794 -22.168249 -0.000000 0.000000 0.000000 -0.000000 0.000000 0.000000 0.000000 0.000000 0.000000 -0.000000 0.000000 0.000000 0.619750 -0.901573 -0.134801 -5.547639 9.733555 3.896216 3.564586 -5.293601 -2.922810 0.000000 0.000000 0.000000 0.000000 0.000000 0.000000 -0.000000 0.000000 0.000000 1.281374 -0.912107 -0.388989 0.843760 2.595983 -0.137858 1.672742 -9.490432 0.913356 0.000000 0.000000 0.000000 0.000000 0.000000 0.000000 0.016103 -0.077794 -22.168249 -0.000000 0.000000 0.000000 -0.000000 0.000000 0.000000 0.000000 0.000000 0.000000 0.016103 -0.077794 -22.168249 -0.000000 0.000000 0.000000 0.547438 -7.168364 4.305696 0.000000 0.000000 0.000000
38.755820 73.740994 368.334298 -0.053531 0.083481 22.111670 0.018171 -0.097491 -22.111615 -0.000000 0.000000 0.000000 -0.000000 0.000000 0.000000 0.000000 0.000000 0.000000 -0.000000 0.000000 0.000000 0.757373 -0.993534 -0.171651 -6.668243 11.027037 4.594814 4.690328 -6.457048 -3.351465 0.000000 0.000000 0.000000 0.000000 0.000000 0.000000 -0.000000 0.000000 0.000000 1.098580 -0.817942 -0.332787 0.401991 2.940526 -0.221518 2.765253 -11.368110 1.175326 0.000000 0.000000 0.000000 0.000000 0.000000 0.000000 0.018171 -0.097491 -22.111615 -0.000000 0.000000 0.000000 -0.000000 0.000000 0.000000 0.000000 0.000000 0.000000 0.018171 -0.097491 -22.111615 -0.000000 0.000000 0.000000 -0.082426 -5.477848 3.676342 0.000000 0.000000 0.000000
38.749859 73.736253 368.350217 -0.060061 0.098771 22.029614 0.018629 -0.114088 -22.029544 -0.000000 0.000000 0.000000 -0.000000 0.000000 0.000000 0.000000 0.000000 0.000000 -0.000000 0.000000 0.000000 0.860621 -0.981007 -0.205361 -7.497212 11.635627 5.029097 5.911296 -7.645129 -3.610699 0.000000 0.000000 0.000000 0.000000 0.000000 0.000000 -0.000000 0.000000 0.000000 0.610271 -0.524854 -0.183300 -0.463045 3.051322 -0.313633 4.151881 -12.615336 1.359928 0.000000 0.000000 0.000000 0.000000 0.000000 0.000000 0.018629 -0.114088 -22.029544 -0.000000 0.000000 0.000000 -0.000000 0.000000 0.000000 0.000000 0.000000 0.000000 0.018629 -0.114088 -22.029544 -0.000000 0.000000 0.000000 -1.064591 -1.659718 2.014521 0.000000 0.000000 0.000000
38.747154 73.729822 368.348339 -0.046490 0.128896 21.939330 -0.005036 -0.136931 -21.939284 -0.000000 0.000000 0.000000 -0.000000 0.000000 0.000000 0.000000 0.000000 0.000000 -0.000000 0.000000 0.000000 0.889066 -0.725110 -0.233869 -8.021800 11.797901 5.299537 7.704449 -9.876568 -3.820064 0.000000 0.000000 0.000000 0.000000 0.000000 0.000000 -0.000000 0.000000 0.000000 -0.000000 0.000000 0.000000 -1.181512 3.137252 -0.483255 6.141531 -13.806555 1.501684 0.000000 0.000000 0.000000 0.000000 0.000000 0.000000 -0.005036 -0.136931 -21.939284 -0.000000 0.000000 0.000000 -0.000000 0.000000 0.000000 0.000000 0.000000 0.000000 -0.005036 -0.136931 -21.939284 -0.000000 0.000000 0.000000 -3.693508 13.421031 -4.141845 0.000000 0.000000 0.000000
38.729812 73.723152 368.363296 -0.067600 0.148224 21.803263 0.007711 -0.162729 -21.803165 -0.000000 0.000000 0.000000 -0.000000 0.000000 0.000000 0.000000 0.000000 0.000000 -0.000000 0.000000 0.000000 0.922762 -0.526544 -0.259781 -7.822320 9.939009 4.643612 8.566848 -9.507206 -3.480071 0.000000 0.000000 0.000000 0.000000 0.000000 0.000000 -0.000000 0.000000 0.000000 -0.000000 0.000000 0.000000 -5.717434 4.686646 -0.245188 10.832089 -15.348759 1.808482 0.000000 0.000000 0.000000 0.000000 0.000000 0.000000 0.007711 -0.162729 -21.803165 -0.000000 0.000000 0.000000 -0.000000 0.000000 0.000000 0.000000 0.000000 0.000000 0.007711 -0.162729 -21.803165 -0.000000 0.000000 0.000000 -3.533711 20.353025 -7.658891 0.000000 0.000000 0.000000
38.689878 73.708795 368.399603 -0.094446 0.143775 21.540152 0.035062 -0.168410 -21.539982 -0.000000 0.000000 0.000000 -0.000000 0.000000 0.000000 0.000000 0.000000 0.000000 -0.000000 0.000000 0.000000 0.972681 -0.244794 -0.297380 -7.992182 9.479284 4.607113 9.731916 -12.010083 -3.417615 0.000000 0.000000 0.000000 0.000000 0.000000 0.000000 0.196851 -0.852384 -0.208503 -2.282873 1.868164 0.922709 -8.760450 5.963048 -0.698838 14.502738 -16.590658 2.402726 0.000000 0.000000 0.000000 0.000000 0.000000 0.000000 0.035062 -0.168410 -21.539982 -0.000000 0.000000 0.000000 -0.000000 0.000000 0.000000 0.000000 0.000000 0.000000 0.035062 -0.168410 -21.539982 -0.000000 0.000000 0.000000 -2.806583 23.692510 -9.889974 0.000000 0.000000 0.000000
38.670970 73.707281 368.404303 -0.092700 0.132943 21.356959 0.037919 -0.157573 -21.356799 -0.000000 0.000000 0.000000 -0.000000 0.000000 0.000000 0.000000 0.000000 0.000000 -0.000000 0.000000 0.000000 0.953122 0.056411 -0.314037 -7.782127 8.104959 4.154411 9.836313 -11.804591 -3.165710 0.000000 0.000000 0.000000 0.000000 0.000000 0.000000 0.821217 -1.274156 -0.377559 -5.484810 3.862354 2.056298 -11.629021 2.981564 -1.135896 14.938065 -12.638565 1.746245 0.000000 0.000000 0.000000 0.000000 0.000000 0.000000 0.037919 -0.157573 -21.356799 -0.000000 0.000000 0.000000 -0.000000 0.000000 0.000000 0.000000 0.000000 0.000000 0.781279 0.389793 -21.206424 -0.495069 -0.779172 -0.155248 -3.297594 26.259933 -10.555253 0.000000 0.000000 0.000000
38.681854 73.710650 368.382350 -0.042547 0.104592 21.259815 0.001727 -0.112902 -21.259775 -0.000000 0.000000 0.000000 -0.000000 0.000000 0.000000 0.000000 0.000000 0.000000 -0.000000 0.000000 0.000000 0.926500 0.296573 -0.323613 -7.901847 8.003155 4.212097 9.625611 -12.045140 -3.160737 0.000000 0.000000 0.000000 0.000000 0.000000 0.000000 1.541008 -1.723163 -0.558999 -10.385690 6.476674 3.960829 -11.599179 -2.971363 -2.576550 11.859614 -4.775979 1.168203 0.000000 0.000000 0.000000 0.000000 0.000000 0.000000 0.001727 -0.112902 -21.259775 -0.000000 0.000000 0.000000 -0.000000 0.000000 0.000000 0.000000 0.000000 0.000000 0.789301 0.457266 -21.104175 -0.529508 -0.815472 -0.161735 -3.478470 23.739379 -9.261981 0.000000 0.000000 0.000000
38.726564 73.712525 368.351446 0.044035 0.069727 21.237362 -0.066302 -0.049040 -21.237417 -0.000000 0.000000 0.000000 -0.675051 -0.840357 -0.248034 0.000000 0.000000 0.000000 -0.000000 0.000000 0.000000 0.909784 0.444828 -0.329369 -8.318115 7.195211 4.045587 8.740905 -12.242311 -2.867668 0.000000 0.000000 0.000000 0.000000 0.000000 0.000000 1.989699 -2.212494 -0.710469 -14.656181 9.072352 5.877649 -22.379445 -11.158103 -5.232401 15.679630 2.750582 1.155011 0.000000 0.000000 0.000000 0.000000 0.000000 0.000000 -0.066302 -0.049040 -21.237417 -0.000000 0.000000 0.000000 -0.000000 0.000000 0.000000 0.000000 0.000000 0.000000 0.670962 0.469290 -21.096394 -0.501330 -0.748931 -0.147003 -3.935626 25.917556 -9.787592 0.000000 0.000000 0.000000
38.794954 73.716739 368.317452 0.144117 0.023472 21.278621 -0.142810 0.030428 -21.278612 -0.000000 0.000000 0.000000 -0.809164 -0.943696 -0.282351 0.000000 0.000000 0.000000 0.173846 -0.847261 0.028535 0.717466 1.334307 -0.365387 -8.455700 6.320875 3.761890 7.704390 -10.803772 -2.567064 0.000000 0.000000 0.000000 0.000000 0.000000 0.000000 2.410150 -2.513712 -0.818369 -21.023612 11.423753 8.826991 -29.559112 -22.282450 -11.489238 13.654980 15.345926 3.717160 0.000000 0.000000 0.000000 0.000000 0.000000 0.000000 -0.142810 0.030428 -21.278612 -0.000000 0.000000 0.000000 -0.000000 0.000000 0.000000 0.000000 0.000000 0.000000 -0.142810 0.030428 -21.278612 -0.000000 0.000000 0.000000 -4.516083 28.722370 -10.436864 0.000000 0.000000 0.000000
38.875532 73.718663 368.284231 0.275321 -0.031063 21.341976 -0.245136 0.129130 -21.341625 -0.000000 0.000000 0.000000 -0.926888 -1.168475 -0.346985 0.000000 0.000000 0.000000 0.286051 -1.079159 0.041224 0.605463 1.435442 -0.368930 -8.872386 6.297729 3.794469 6.235319 -10.375987 -2.326438 0.000000 0.000000 0.000000 0.000000 0.000000 0.000000 3.153446 -2.689528 -0.936666 -29.919305 13.513095 13.017018 -35.594888 -26.653837 -19.406199 12.952296 19.635128 7.349696 0.000000 0.000000 0.000000 0.000000 0.000000 0.000000 -0.245136 0.129130 -21.341625 -0.000000 0.000000 0.000000 -0.000000 0.000000 0.000000 0.000000 0.000000 0.000000 -0.245136 0.129130 -21.341625 -0.000000 0.000000 0.000000 -5.063131 31.977494 -11.267184 0.000000 0.000000 0.000000
